<?xml version="1.0" encoding="us-ascii" standalone="no"?><svg xmlns="http://www.w3.org/2000/svg" xmlns:xlink="http://www.w3.org/1999/xlink" contentStyleType="text/css" height="1627px" preserveAspectRatio="none" style="width:2707px;height:1627px;background:#FFFFFF;" version="1.1" viewBox="0 0 2707 1627" width="2707px" zoomAndPan="magnify"><defs/><g><text fill="#000000" font-family="sans-serif" font-size="14" font-weight="bold" lengthAdjust="spacing" textLength="391" x="1159.5" y="29.5332">EasySave - Main sequence (UI or CLI) and job execution</text><rect fill="#FFFFFF" height="1396.0078" style="stroke:#181818;stroke-width:1.0;" width="10" x="1333" y="131.2188"/><rect fill="none" height="491.4609" style="stroke:#000000;stroke-width:1.5;" width="2576" x="10" y="549.1406"/><rect fill="none" height="79.0547" style="stroke:#000000;stroke-width:1.5;" width="1970" x="606" y="695.8984"/><rect fill="none" height="200.4609" style="stroke:#000000;stroke-width:1.5;" width="1881" x="820" y="1267.0625"/><line style="stroke:#181818;stroke-width:0.5;stroke-dasharray:5.0,5.0;" x1="37" x2="37" y1="121.2188" y2="1545.2266"/><line style="stroke:#181818;stroke-width:0.5;stroke-dasharray:5.0,5.0;" x1="99" x2="99" y1="121.2188" y2="1545.2266"/><line style="stroke:#181818;stroke-width:0.5;stroke-dasharray:5.0,5.0;" x1="216" x2="216" y1="121.2188" y2="1545.2266"/><line style="stroke:#181818;stroke-width:0.5;stroke-dasharray:5.0,5.0;" x1="383" x2="383" y1="121.2188" y2="1545.2266"/><line style="stroke:#181818;stroke-width:0.5;stroke-dasharray:5.0,5.0;" x1="541" x2="541" y1="121.2188" y2="1545.2266"/><line style="stroke:#181818;stroke-width:0.5;stroke-dasharray:5.0,5.0;" x1="661" x2="661" y1="121.2188" y2="1545.2266"/><line style="stroke:#181818;stroke-width:0.5;stroke-dasharray:5.0,5.0;" x1="768" x2="768" y1="121.2188" y2="1545.2266"/><line style="stroke:#181818;stroke-width:0.5;stroke-dasharray:5.0,5.0;" x1="888" x2="888" y1="121.2188" y2="1545.2266"/><line style="stroke:#181818;stroke-width:0.5;stroke-dasharray:5.0,5.0;" x1="1046" x2="1046" y1="121.2188" y2="1545.2266"/><line style="stroke:#181818;stroke-width:0.5;stroke-dasharray:5.0,5.0;" x1="1209" x2="1209" y1="121.2188" y2="1545.2266"/><line style="stroke:#181818;stroke-width:0.5;stroke-dasharray:5.0,5.0;" x1="1338" x2="1338" y1="121.2188" y2="1545.2266"/><line style="stroke:#181818;stroke-width:0.5;stroke-dasharray:5.0,5.0;" x1="1556" x2="1556" y1="121.2188" y2="1545.2266"/><line style="stroke:#181818;stroke-width:0.5;stroke-dasharray:5.0,5.0;" x1="1721" x2="1721" y1="121.2188" y2="1545.2266"/><line style="stroke:#181818;stroke-width:0.5;stroke-dasharray:5.0,5.0;" x1="1838" x2="1838" y1="121.2188" y2="1545.2266"/><line style="stroke:#181818;stroke-width:0.5;stroke-dasharray:5.0,5.0;" x1="1937" x2="1937" y1="121.2188" y2="1545.2266"/><line style="stroke:#181818;stroke-width:0.5;stroke-dasharray:5.0,5.0;" x1="2066" x2="2066" y1="121.2188" y2="1545.2266"/><line style="stroke:#181818;stroke-width:0.5;stroke-dasharray:5.0,5.0;" x1="2203" x2="2203" y1="121.2188" y2="1545.2266"/><line style="stroke:#181818;stroke-width:0.5;stroke-dasharray:5.0,5.0;" x1="2339" x2="2339" y1="121.2188" y2="1545.2266"/><line style="stroke:#181818;stroke-width:0.5;stroke-dasharray:5.0,5.0;" x1="2492" x2="2492" y1="121.2188" y2="1545.2266"/><line style="stroke:#181818;stroke-width:0.5;stroke-dasharray:5.0,5.0;" x1="2633" x2="2633" y1="121.2188" y2="1545.2266"/><text fill="#000000" font-family="sans-serif" font-size="14" lengthAdjust="spacing" textLength="29" x="20" y="118.1426">User</text><ellipse cx="37.5" cy="52.1094" fill="#E2E2F0" rx="8" ry="8" style="stroke:#181818;stroke-width:0.5;"/><path d="M37.5,60.1094 L37.5,87.1094 M24.5,68.1094 L50.5,68.1094 M37.5,87.1094 L24.5,102.1094 M37.5,87.1094 L50.5,102.1094 " fill="none" style="stroke:#181818;stroke-width:0.5;"/><text fill="#000000" font-family="sans-serif" font-size="14" lengthAdjust="spacing" textLength="29" x="20" y="1558.7598">User</text><ellipse cx="37.5" cy="1570.3359" fill="#E2E2F0" rx="8" ry="8" style="stroke:#181818;stroke-width:0.5;"/><path d="M37.5,1578.3359 L37.5,1605.3359 M24.5,1586.3359 L50.5,1586.3359 M37.5,1605.3359 L24.5,1620.3359 M37.5,1605.3359 L50.5,1620.3359 " fill="none" style="stroke:#181818;stroke-width:0.5;"/><rect fill="#E2E2F0" height="31.6094" rx="2.5" ry="2.5" style="stroke:#181818;stroke-width:0.5;" width="68" x="65" y="88.6094"/><text fill="#000000" font-family="sans-serif" font-size="14" lengthAdjust="spacing" textLength="54" x="72" y="110.1426">Program</text><rect fill="#E2E2F0" height="31.6094" rx="2.5" ry="2.5" style="stroke:#181818;stroke-width:0.5;" width="68" x="65" y="1544.2266"/><text fill="#000000" font-family="sans-serif" font-size="14" lengthAdjust="spacing" textLength="54" x="72" y="1565.7598">Program</text><rect fill="#E2E2F0" height="31.6094" rx="2.5" ry="2.5" style="stroke:#181818;stroke-width:0.5;" width="146" x="143" y="88.6094"/><text fill="#000000" font-family="sans-serif" font-size="14" lengthAdjust="spacing" textLength="132" x="150" y="110.1426">EasySaveApplication</text><rect fill="#E2E2F0" height="31.6094" rx="2.5" ry="2.5" style="stroke:#181818;stroke-width:0.5;" width="146" x="143" y="1544.2266"/><text fill="#000000" font-family="sans-serif" font-size="14" lengthAdjust="spacing" textLength="132" x="150" y="1565.7598">EasySaveApplication</text><rect fill="#E2E2F0" height="31.6094" rx="2.5" ry="2.5" style="stroke:#181818;stroke-width:0.5;" width="168" x="299" y="88.6094"/><text fill="#000000" font-family="sans-serif" font-size="14" lengthAdjust="spacing" textLength="154" x="306" y="110.1426">ApplicationConfiguration</text><rect fill="#E2E2F0" height="31.6094" rx="2.5" ry="2.5" style="stroke:#181818;stroke-width:0.5;" width="168" x="299" y="1544.2266"/><text fill="#000000" font-family="sans-serif" font-size="14" lengthAdjust="spacing" textLength="154" x="306" y="1565.7598">ApplicationConfiguration</text><rect fill="#E2E2F0" height="31.6094" rx="2.5" ry="2.5" style="stroke:#181818;stroke-width:0.5;" width="129" x="477" y="88.6094"/><text fill="#000000" font-family="sans-serif" font-size="14" lengthAdjust="spacing" textLength="115" x="484" y="110.1426">DataPathResolver</text><rect fill="#E2E2F0" height="31.6094" rx="2.5" ry="2.5" style="stroke:#181818;stroke-width:0.5;" width="129" x="477" y="1544.2266"/><text fill="#000000" font-family="sans-serif" font-size="14" lengthAdjust="spacing" textLength="115" x="484" y="1565.7598">DataPathResolver</text><rect fill="#E2E2F0" height="31.6094" rx="2.5" ry="2.5" style="stroke:#181818;stroke-width:0.5;" width="90" x="616" y="88.6094"/><text fill="#000000" font-family="sans-serif" font-size="14" lengthAdjust="spacing" textLength="76" x="623" y="110.1426">PathService</text><rect fill="#E2E2F0" height="31.6094" rx="2.5" ry="2.5" style="stroke:#181818;stroke-width:0.5;" width="90" x="616" y="1544.2266"/><text fill="#000000" font-family="sans-serif" font-size="14" lengthAdjust="spacing" textLength="76" x="623" y="1565.7598">PathService</text><rect fill="#E2E2F0" height="31.6094" rx="2.5" ry="2.5" style="stroke:#181818;stroke-width:0.5;" width="104" x="716" y="88.6094"/><text fill="#000000" font-family="sans-serif" font-size="14" lengthAdjust="spacing" textLength="90" x="723" y="110.1426">JobRepository</text><rect fill="#E2E2F0" height="31.6094" rx="2.5" ry="2.5" style="stroke:#181818;stroke-width:0.5;" width="104" x="716" y="1544.2266"/><text fill="#000000" font-family="sans-serif" font-size="14" lengthAdjust="spacing" textLength="90" x="723" y="1565.7598">JobRepository</text><rect fill="#E2E2F0" height="31.6094" rx="2.5" ry="2.5" style="stroke:#181818;stroke-width:0.5;" width="117" x="830" y="88.6094"/><text fill="#000000" font-family="sans-serif" font-size="14" lengthAdjust="spacing" textLength="103" x="837" y="110.1426">StateFileService</text><rect fill="#E2E2F0" height="31.6094" rx="2.5" ry="2.5" style="stroke:#181818;stroke-width:0.5;" width="117" x="830" y="1544.2266"/><text fill="#000000" font-family="sans-serif" font-size="14" lengthAdjust="spacing" textLength="103" x="837" y="1565.7598">StateFileService</text><rect fill="#E2E2F0" height="31.6094" rx="2.5" ry="2.5" style="stroke:#181818;stroke-width:0.5;" width="178" x="957" y="88.6094"/><text fill="#000000" font-family="sans-serif" font-size="14" lengthAdjust="spacing" textLength="164" x="964" y="110.1426">JsonLogWriter&lt;LogEntry&gt;</text><rect fill="#E2E2F0" height="31.6094" rx="2.5" ry="2.5" style="stroke:#181818;stroke-width:0.5;" width="178" x="957" y="1544.2266"/><text fill="#000000" font-family="sans-serif" font-size="14" lengthAdjust="spacing" textLength="164" x="964" y="1565.7598">JsonLogWriter&lt;LogEntry&gt;</text><rect fill="#E2E2F0" height="31.6094" rx="2.5" ry="2.5" style="stroke:#181818;stroke-width:0.5;" width="129" x="1145" y="88.6094"/><text fill="#000000" font-family="sans-serif" font-size="14" lengthAdjust="spacing" textLength="115" x="1152" y="110.1426">StateSynchronizer</text><rect fill="#E2E2F0" height="31.6094" rx="2.5" ry="2.5" style="stroke:#181818;stroke-width:0.5;" width="129" x="1145" y="1544.2266"/><text fill="#000000" font-family="sans-serif" font-size="14" lengthAdjust="spacing" textLength="115" x="1152" y="1565.7598">StateSynchronizer</text><rect fill="#E2E2F0" height="31.6094" rx="2.5" ry="2.5" style="stroke:#181818;stroke-width:0.5;" width="108" x="1284" y="88.6094"/><text fill="#000000" font-family="sans-serif" font-size="14" lengthAdjust="spacing" textLength="94" x="1291" y="110.1426">BackupService</text><rect fill="#E2E2F0" height="31.6094" rx="2.5" ry="2.5" style="stroke:#181818;stroke-width:0.5;" width="108" x="1284" y="1544.2266"/><text fill="#000000" font-family="sans-serif" font-size="14" lengthAdjust="spacing" textLength="94" x="1291" y="1565.7598">BackupService</text><rect fill="#E2E2F0" height="31.6094" rx="2.5" ry="2.5" style="stroke:#181818;stroke-width:0.5;" width="174" x="1469" y="88.6094"/><text fill="#000000" font-family="sans-serif" font-size="14" lengthAdjust="spacing" textLength="160" x="1476" y="110.1426">BackupDirectoryPreparer</text><rect fill="#E2E2F0" height="31.6094" rx="2.5" ry="2.5" style="stroke:#181818;stroke-width:0.5;" width="174" x="1469" y="1544.2266"/><text fill="#000000" font-family="sans-serif" font-size="14" lengthAdjust="spacing" textLength="160" x="1476" y="1565.7598">BackupDirectoryPreparer</text><rect fill="#E2E2F0" height="31.6094" rx="2.5" ry="2.5" style="stroke:#181818;stroke-width:0.5;" width="136" x="1653" y="88.6094"/><text fill="#000000" font-family="sans-serif" font-size="14" lengthAdjust="spacing" textLength="122" x="1660" y="110.1426">BackupFileSelector</text><rect fill="#E2E2F0" height="31.6094" rx="2.5" ry="2.5" style="stroke:#181818;stroke-width:0.5;" width="136" x="1653" y="1544.2266"/><text fill="#000000" font-family="sans-serif" font-size="14" lengthAdjust="spacing" textLength="122" x="1660" y="1565.7598">BackupFileSelector</text><rect fill="#E2E2F0" height="31.6094" rx="2.5" ry="2.5" style="stroke:#181818;stroke-width:0.5;" width="79" x="1799" y="88.6094"/><text fill="#000000" font-family="sans-serif" font-size="14" lengthAdjust="spacing" textLength="65" x="1806" y="110.1426">FileCopier</text><rect fill="#E2E2F0" height="31.6094" rx="2.5" ry="2.5" style="stroke:#181818;stroke-width:0.5;" width="79" x="1799" y="1544.2266"/><text fill="#000000" font-family="sans-serif" font-size="14" lengthAdjust="spacing" textLength="65" x="1806" y="1565.7598">FileCopier</text><rect fill="#E2E2F0" height="31.6094" rx="2.5" ry="2.5" style="stroke:#181818;stroke-width:0.5;" width="98" x="1888" y="88.6094"/><text fill="#000000" font-family="sans-serif" font-size="14" lengthAdjust="spacing" textLength="84" x="1895" y="110.1426">UserInterface</text><rect fill="#E2E2F0" height="31.6094" rx="2.5" ry="2.5" style="stroke:#181818;stroke-width:0.5;" width="98" x="1888" y="1544.2266"/><text fill="#000000" font-family="sans-serif" font-size="14" lengthAdjust="spacing" textLength="84" x="1895" y="1565.7598">UserInterface</text><rect fill="#E2E2F0" height="31.6094" rx="2.5" ry="2.5" style="stroke:#181818;stroke-width:0.5;" width="141" x="1996" y="88.6094"/><text fill="#000000" font-family="sans-serif" font-size="14" lengthAdjust="spacing" textLength="127" x="2003" y="110.1426">MainMenuController</text><rect fill="#E2E2F0" height="31.6094" rx="2.5" ry="2.5" style="stroke:#181818;stroke-width:0.5;" width="141" x="1996" y="1544.2266"/><text fill="#000000" font-family="sans-serif" font-size="14" lengthAdjust="spacing" textLength="127" x="2003" y="1565.7598">MainMenuController</text><rect fill="#E2E2F0" height="31.6094" rx="2.5" ry="2.5" style="stroke:#181818;stroke-width:0.5;" width="112" x="2147" y="88.6094"/><text fill="#000000" font-family="sans-serif" font-size="14" lengthAdjust="spacing" textLength="98" x="2154" y="110.1426">JobLaunchView</text><rect fill="#E2E2F0" height="31.6094" rx="2.5" ry="2.5" style="stroke:#181818;stroke-width:0.5;" width="112" x="2147" y="1544.2266"/><text fill="#000000" font-family="sans-serif" font-size="14" lengthAdjust="spacing" textLength="98" x="2154" y="1565.7598">JobLaunchView</text><rect fill="#E2E2F0" height="31.6094" rx="2.5" ry="2.5" style="stroke:#181818;stroke-width:0.5;" width="140" x="2269" y="88.6094"/><text fill="#000000" font-family="sans-serif" font-size="14" lengthAdjust="spacing" textLength="126" x="2276" y="110.1426">CommandController</text><rect fill="#E2E2F0" height="31.6094" rx="2.5" ry="2.5" style="stroke:#181818;stroke-width:0.5;" width="140" x="2269" y="1544.2266"/><text fill="#000000" font-family="sans-serif" font-size="14" lengthAdjust="spacing" textLength="126" x="2276" y="1565.7598">CommandController</text><rect fill="#E2E2F0" height="31.6094" rx="2.5" ry="2.5" style="stroke:#181818;stroke-width:0.5;" width="147" x="2419" y="88.6094"/><text fill="#000000" font-family="sans-serif" font-size="14" lengthAdjust="spacing" textLength="133" x="2426" y="110.1426">CommandJobRunner</text><rect fill="#E2E2F0" height="31.6094" rx="2.5" ry="2.5" style="stroke:#181818;stroke-width:0.5;" width="147" x="2419" y="1544.2266"/><text fill="#000000" font-family="sans-serif" font-size="14" lengthAdjust="spacing" textLength="133" x="2426" y="1565.7598">CommandJobRunner</text><rect fill="#E2E2F0" height="31.6094" rx="2.5" ry="2.5" style="stroke:#181818;stroke-width:0.5;" width="115" x="2576" y="88.6094"/><text fill="#000000" font-family="sans-serif" font-size="14" lengthAdjust="spacing" textLength="101" x="2583" y="110.1426">ProgressWidget</text><rect fill="#E2E2F0" height="31.6094" rx="2.5" ry="2.5" style="stroke:#181818;stroke-width:0.5;" width="115" x="2576" y="1544.2266"/><text fill="#000000" font-family="sans-serif" font-size="14" lengthAdjust="spacing" textLength="101" x="2583" y="1565.7598">ProgressWidget</text><rect fill="#FFFFFF" height="1396.0078" style="stroke:#181818;stroke-width:1.0;" width="10" x="1333" y="131.2188"/><polygon fill="#181818" points="204,149.5703,214,153.5703,204,157.5703,208,153.5703" style="stroke:#181818;stroke-width:1.0;"/><line style="stroke:#181818;stroke-width:1.0;" x1="99" x2="210" y1="153.5703" y2="153.5703"/><text fill="#000000" font-family="sans-serif" font-size="13" lengthAdjust="spacing" textLength="56" x="106" y="148.7139">Run(args)</text><polygon fill="#181818" points="371,196.2734,381,200.2734,371,204.2734,375,200.2734" style="stroke:#181818;stroke-width:1.0;"/><line style="stroke:#181818;stroke-width:1.0;" x1="216" x2="377" y1="200.2734" y2="200.2734"/><text fill="#000000" font-family="sans-serif" font-size="13" lengthAdjust="spacing" textLength="36" x="223" y="179.0654">Load()</text><text fill="#000000" font-family="sans-serif" font-size="13" lengthAdjust="spacing" textLength="49" x="223" y="195.417">Instance</text><polygon fill="#181818" points="529.5,226.625,539.5,230.625,529.5,234.625,533.5,230.625" style="stroke:#181818;stroke-width:1.0;"/><line style="stroke:#181818;stroke-width:1.0;" x1="216" x2="535.5" y1="230.625" y2="230.625"/><text fill="#000000" font-family="sans-serif" font-size="13" lengthAdjust="spacing" textLength="160" x="223" y="225.7686">ResolveDirectory(config/log)</text><polygon fill="#181818" points="649,256.9766,659,260.9766,649,264.9766,653,260.9766" style="stroke:#181818;stroke-width:1.0;"/><line style="stroke:#181818;stroke-width:1.0;" x1="216" x2="655" y1="260.9766" y2="260.9766"/><text fill="#000000" font-family="sans-serif" font-size="13" lengthAdjust="spacing" textLength="31" x="223" y="256.1201">new()</text><polygon fill="#181818" points="756,287.3281,766,291.3281,756,295.3281,760,291.3281" style="stroke:#181818;stroke-width:1.0;"/><line style="stroke:#181818;stroke-width:1.0;" x1="216" x2="762" y1="291.3281" y2="291.3281"/><text fill="#000000" font-family="sans-serif" font-size="13" lengthAdjust="spacing" textLength="81" x="223" y="286.4717">new(configDir)</text><polygon fill="#181818" points="876.5,317.6797,886.5,321.6797,876.5,325.6797,880.5,321.6797" style="stroke:#181818;stroke-width:1.0;"/><line style="stroke:#181818;stroke-width:1.0;" x1="216" x2="882.5" y1="321.6797" y2="321.6797"/><text fill="#000000" font-family="sans-serif" font-size="13" lengthAdjust="spacing" textLength="81" x="223" y="316.8232">new(configDir)</text><polygon fill="#181818" points="1034,348.0313,1044,352.0313,1034,356.0313,1038,352.0313" style="stroke:#181818;stroke-width:1.0;"/><line style="stroke:#181818;stroke-width:1.0;" x1="216" x2="1040" y1="352.0313" y2="352.0313"/><text fill="#000000" font-family="sans-serif" font-size="13" lengthAdjust="spacing" textLength="64" x="223" y="347.1748">new(logDir)</text><polygon fill="#181818" points="1709,378.3828,1719,382.3828,1709,386.3828,1713,382.3828" style="stroke:#181818;stroke-width:1.0;"/><line style="stroke:#181818;stroke-width:1.0;" x1="216" x2="1715" y1="382.3828" y2="382.3828"/><text fill="#000000" font-family="sans-serif" font-size="13" lengthAdjust="spacing" textLength="65" x="223" y="377.5264">new(Paths)</text><polygon fill="#181818" points="1544,408.7344,1554,412.7344,1544,416.7344,1548,412.7344" style="stroke:#181818;stroke-width:1.0;"/><line style="stroke:#181818;stroke-width:1.0;" x1="216" x2="1550" y1="412.7344" y2="412.7344"/><text fill="#000000" font-family="sans-serif" font-size="13" lengthAdjust="spacing" textLength="129" x="223" y="407.8779">new(LogWriter, Paths)</text><polygon fill="#181818" points="1826.5,439.0859,1836.5,443.0859,1826.5,447.0859,1830.5,443.0859" style="stroke:#181818;stroke-width:1.0;"/><line style="stroke:#181818;stroke-width:1.0;" x1="216" x2="1832.5" y1="443.0859" y2="443.0859"/><text fill="#000000" font-family="sans-serif" font-size="13" lengthAdjust="spacing" textLength="31" x="223" y="438.2295">new()</text><polygon fill="#181818" points="1321,469.4375,1331,473.4375,1321,477.4375,1325,473.4375" style="stroke:#181818;stroke-width:1.0;"/><line style="stroke:#181818;stroke-width:1.0;" x1="216" x2="1327" y1="473.4375" y2="473.4375"/><text fill="#000000" font-family="sans-serif" font-size="13" lengthAdjust="spacing" textLength="320" x="223" y="468.5811">new(LogWriter, State, Paths, Selector, DirPrep, Copier)</text><polygon fill="#181818" points="1197.5,499.7891,1207.5,503.7891,1197.5,507.7891,1201.5,503.7891" style="stroke:#181818;stroke-width:1.0;"/><line style="stroke:#181818;stroke-width:1.0;" x1="216" x2="1203.5" y1="503.7891" y2="503.7891"/><text fill="#000000" font-family="sans-serif" font-size="13" lengthAdjust="spacing" textLength="100" x="223" y="498.9326">new(Repo, State)</text><polygon fill="#181818" points="876.5,530.1406,886.5,534.1406,876.5,538.1406,880.5,534.1406" style="stroke:#181818;stroke-width:1.0;"/><line style="stroke:#181818;stroke-width:1.0;" x1="216" x2="882.5" y1="534.1406" y2="534.1406"/><text fill="#000000" font-family="sans-serif" font-size="13" lengthAdjust="spacing" textLength="125" x="223" y="529.2842">Initialize(Repo.Load())</text><path d="M10,549.1406 L71,549.1406 L71,557.4922 L61,567.4922 L10,567.4922 L10,549.1406 " fill="#EEEEEE" style="stroke:#000000;stroke-width:1.5;"/><rect fill="none" height="491.4609" style="stroke:#000000;stroke-width:1.5;" width="2576" x="10" y="549.1406"/><text fill="#000000" font-family="sans-serif" font-size="13" font-weight="bold" lengthAdjust="spacing" textLength="16" x="25" y="563.6357">alt</text><text fill="#000000" font-family="sans-serif" font-size="11" font-weight="bold" lengthAdjust="spacing" textLength="157" x="86" y="562.5596">[args.Length &gt; 0 (CLI mode)]</text><polygon fill="#181818" points="2327,585.8438,2337,589.8438,2327,593.8438,2331,589.8438" style="stroke:#181818;stroke-width:1.0;"/><line style="stroke:#181818;stroke-width:1.0;" x1="216" x2="2333" y1="589.8438" y2="589.8438"/><text fill="#000000" font-family="sans-serif" font-size="13" lengthAdjust="spacing" textLength="227" x="223" y="584.9873">Run(args, Repo, Backup, State, Paths)</text><polygon fill="#181818" points="2480.5,616.1953,2490.5,620.1953,2480.5,624.1953,2484.5,620.1953" style="stroke:#181818;stroke-width:1.0;"/><line style="stroke:#181818;stroke-width:1.0;" x1="2339" x2="2486.5" y1="620.1953" y2="620.1953"/><text fill="#000000" font-family="sans-serif" font-size="13" lengthAdjust="spacing" textLength="75" x="2346" y="615.3389">RunJobs(ids)</text><polygon fill="#181818" points="779,646.5469,769,650.5469,779,654.5469,775,650.5469" style="stroke:#181818;stroke-width:1.0;"/><line style="stroke:#181818;stroke-width:1.0;" x1="773" x2="2491.5" y1="650.5469" y2="650.5469"/><text fill="#000000" font-family="sans-serif" font-size="13" lengthAdjust="spacing" textLength="36" x="785" y="645.6904">Load()</text><polygon fill="#181818" points="899.5,676.8984,889.5,680.8984,899.5,684.8984,895.5,680.8984" style="stroke:#181818;stroke-width:1.0;"/><line style="stroke:#181818;stroke-width:1.0;" x1="893.5" x2="2491.5" y1="680.8984" y2="680.8984"/><text fill="#000000" font-family="sans-serif" font-size="13" lengthAdjust="spacing" textLength="79" x="905.5" y="676.042">Initialize(jobs)</text><path d="M606,695.8984 L679,695.8984 L679,704.25 L669,714.25 L606,714.25 L606,695.8984 " fill="#EEEEEE" style="stroke:#000000;stroke-width:1.5;"/><rect fill="none" height="79.0547" style="stroke:#000000;stroke-width:1.5;" width="1970" x="606" y="695.8984"/><text fill="#000000" font-family="sans-serif" font-size="13" font-weight="bold" lengthAdjust="spacing" textLength="28" x="621" y="710.3936">loop</text><text fill="#000000" font-family="sans-serif" font-size="11" font-weight="bold" lengthAdjust="spacing" textLength="47" x="694" y="709.3174">[each id]</text><polygon fill="#181818" points="672,732.6016,662,736.6016,672,740.6016,668,736.6016" style="stroke:#181818;stroke-width:1.0;"/><line style="stroke:#181818;stroke-width:1.0;" x1="666" x2="2491.5" y1="736.6016" y2="736.6016"/><text fill="#000000" font-family="sans-serif" font-size="13" lengthAdjust="spacing" textLength="238" x="678" y="731.7451">TryNormalizeExistingDirectory(src/target)</text><polygon fill="#181818" points="1354,762.9531,1344,766.9531,1354,770.9531,1350,766.9531" style="stroke:#181818;stroke-width:1.0;"/><line style="stroke:#181818;stroke-width:1.0;" x1="1348" x2="2491.5" y1="766.9531" y2="766.9531"/><text fill="#000000" font-family="sans-serif" font-size="13" lengthAdjust="spacing" textLength="68" x="1360" y="762.0967">RunJob(job)</text><line style="stroke:#000000;stroke-width:1.0;stroke-dasharray:2.0,2.0;" x1="10" x2="2586" y1="782.9531" y2="782.9531"/><text fill="#000000" font-family="sans-serif" font-size="11" font-weight="bold" lengthAdjust="spacing" textLength="114" x="15" y="794.3721">[interactive UI mode]</text><polygon fill="#181818" points="1925,816.1406,1935,820.1406,1925,824.1406,1929,820.1406" style="stroke:#181818;stroke-width:1.0;"/><line style="stroke:#181818;stroke-width:1.0;" x1="216" x2="1931" y1="820.1406" y2="820.1406"/><text fill="#000000" font-family="sans-serif" font-size="13" lengthAdjust="spacing" textLength="256" x="223" y="815.2842">Initialize(Repo, Backup, State, Sync, Paths)</text><polygon fill="#181818" points="1925,846.4922,1935,850.4922,1925,854.4922,1929,850.4922" style="stroke:#181818;stroke-width:1.0;"/><line style="stroke:#181818;stroke-width:1.0;" x1="216" x2="1931" y1="850.4922" y2="850.4922"/><text fill="#000000" font-family="sans-serif" font-size="13" lengthAdjust="spacing" textLength="72" x="223" y="845.6357">ShowMenu()</text><polygon fill="#181818" points="2054.5,876.8438,2064.5,880.8438,2054.5,884.8438,2058.5,880.8438" style="stroke:#181818;stroke-width:1.0;"/><line style="stroke:#181818;stroke-width:1.0;" x1="1937" x2="2060.5" y1="880.8438" y2="880.8438"/><text fill="#000000" font-family="sans-serif" font-size="13" lengthAdjust="spacing" textLength="40" x="1944" y="875.9873">Show()</text><polygon fill="#181818" points="2054.5,907.1953,2064.5,911.1953,2054.5,915.1953,2058.5,911.1953" style="stroke:#181818;stroke-width:1.0;"/><line style="stroke:#181818;stroke-width:1.0;" x1="37.5" x2="2060.5" y1="911.1953" y2="911.1953"/><text fill="#000000" font-family="sans-serif" font-size="13" lengthAdjust="spacing" textLength="137" x="44.5" y="906.3389">select "Launch backup"</text><polygon fill="#181818" points="2191,937.5469,2201,941.5469,2191,945.5469,2195,941.5469" style="stroke:#181818;stroke-width:1.0;"/><line style="stroke:#181818;stroke-width:1.0;" x1="2066.5" x2="2197" y1="941.5469" y2="941.5469"/><text fill="#000000" font-family="sans-serif" font-size="13" lengthAdjust="spacing" textLength="40" x="2073.5" y="936.6904">Show()</text><polygon fill="#181818" points="779,967.8984,769,971.8984,779,975.8984,775,971.8984" style="stroke:#181818;stroke-width:1.0;"/><line style="stroke:#181818;stroke-width:1.0;" x1="773" x2="2202" y1="971.8984" y2="971.8984"/><text fill="#000000" font-family="sans-serif" font-size="13" lengthAdjust="spacing" textLength="36" x="785" y="967.042">Load()</text><polygon fill="#181818" points="672,998.25,662,1002.25,672,1006.25,668,1002.25" style="stroke:#181818;stroke-width:1.0;"/><line style="stroke:#181818;stroke-width:1.0;" x1="666" x2="2202" y1="1002.25" y2="1002.25"/><text fill="#000000" font-family="sans-serif" font-size="13" lengthAdjust="spacing" textLength="238" x="678" y="997.3936">TryNormalizeExistingDirectory(src/target)</text><polygon fill="#181818" points="1354,1028.6016,1344,1032.6016,1354,1036.6016,1350,1032.6016" style="stroke:#181818;stroke-width:1.0;"/><line style="stroke:#181818;stroke-width:1.0;" x1="1348" x2="2202" y1="1032.6016" y2="1032.6016"/><text fill="#000000" font-family="sans-serif" font-size="13" lengthAdjust="spacing" textLength="68" x="1360" y="1027.7451">RunJob(job)</text><polygon fill="#181818" points="899.5,1065.9531,889.5,1069.9531,899.5,1073.9531,895.5,1069.9531" style="stroke:#181818;stroke-width:1.0;"/><line style="stroke:#181818;stroke-width:1.0;" x1="893.5" x2="1332" y1="1069.9531" y2="1069.9531"/><text fill="#000000" font-family="sans-serif" font-size="13" lengthAdjust="spacing" textLength="98" x="905.5" y="1065.0967">GetOrCreate(job)</text><polygon fill="#181818" points="672,1096.3047,662,1100.3047,672,1104.3047,668,1100.3047" style="stroke:#181818;stroke-width:1.0;"/><line style="stroke:#181818;stroke-width:1.0;" x1="666" x2="1332" y1="1100.3047" y2="1100.3047"/><text fill="#000000" font-family="sans-serif" font-size="13" lengthAdjust="spacing" textLength="238" x="678" y="1095.4482">TryNormalizeExistingDirectory(src/target)</text><polygon fill="#181818" points="1057,1126.6563,1047,1130.6563,1057,1134.6563,1053,1130.6563" style="stroke:#181818;stroke-width:1.0;"/><line style="stroke:#181818;stroke-width:1.0;" x1="1051" x2="1332" y1="1130.6563" y2="1130.6563"/><text fill="#000000" font-family="sans-serif" font-size="13" lengthAdjust="spacing" textLength="55" x="1063" y="1125.7998">Log(start)</text><polygon fill="#181818" points="1544,1157.0078,1554,1161.0078,1544,1165.0078,1548,1161.0078" style="stroke:#181818;stroke-width:1.0;"/><line style="stroke:#181818;stroke-width:1.0;" x1="1343" x2="1550" y1="1161.0078" y2="1161.0078"/><text fill="#000000" font-family="sans-serif" font-size="13" lengthAdjust="spacing" textLength="159" x="1350" y="1156.1514">EnsureTargetDirectories(...)</text><polygon fill="#181818" points="1709,1187.3594,1719,1191.3594,1709,1195.3594,1713,1191.3594" style="stroke:#181818;stroke-width:1.0;"/><line style="stroke:#181818;stroke-width:1.0;" x1="1343" x2="1715" y1="1191.3594" y2="1191.3594"/><text fill="#000000" font-family="sans-serif" font-size="13" lengthAdjust="spacing" textLength="113" x="1350" y="1186.5029">GetFilesToCopy(...)</text><polygon fill="#181818" points="899.5,1217.7109,889.5,1221.7109,899.5,1225.7109,895.5,1221.7109" style="stroke:#181818;stroke-width:1.0;"/><line style="stroke:#181818;stroke-width:1.0;" x1="893.5" x2="1332" y1="1221.7109" y2="1221.7109"/><text fill="#000000" font-family="sans-serif" font-size="13" lengthAdjust="spacing" textLength="112" x="905.5" y="1216.8545">Update(state=start)</text><polygon fill="#181818" points="2621.5,1248.0625,2631.5,1252.0625,2621.5,1256.0625,2625.5,1252.0625" style="stroke:#181818;stroke-width:1.0;"/><line style="stroke:#181818;stroke-width:1.0;" x1="1343" x2="2627.5" y1="1252.0625" y2="1252.0625"/><text fill="#000000" font-family="sans-serif" font-size="13" lengthAdjust="spacing" textLength="123" x="1350" y="1247.2061">new(SystemConsole)</text><path d="M820,1267.0625 L893,1267.0625 L893,1275.4141 L883,1285.4141 L820,1285.4141 L820,1267.0625 " fill="#EEEEEE" style="stroke:#000000;stroke-width:1.5;"/><rect fill="none" height="200.4609" style="stroke:#000000;stroke-width:1.5;" width="1881" x="820" y="1267.0625"/><text fill="#000000" font-family="sans-serif" font-size="13" font-weight="bold" lengthAdjust="spacing" textLength="28" x="835" y="1281.5576">loop</text><text fill="#000000" font-family="sans-serif" font-size="11" font-weight="bold" lengthAdjust="spacing" textLength="54" x="908" y="1280.4814">[each file]</text><polygon fill="#181818" points="1544,1303.7656,1554,1307.7656,1544,1311.7656,1548,1307.7656" style="stroke:#181818;stroke-width:1.0;"/><line style="stroke:#181818;stroke-width:1.0;" x1="1343" x2="1550" y1="1307.7656" y2="1307.7656"/><text fill="#000000" font-family="sans-serif" font-size="13" lengthAdjust="spacing" textLength="189" x="1350" y="1302.9092">EnsureTargetDirectoryForFile(...)</text><polygon fill="#181818" points="899.5,1334.1172,889.5,1338.1172,899.5,1342.1172,895.5,1338.1172" style="stroke:#181818;stroke-width:1.0;"/><line style="stroke:#181818;stroke-width:1.0;" x1="893.5" x2="1332" y1="1338.1172" y2="1338.1172"/><text fill="#000000" font-family="sans-serif" font-size="13" lengthAdjust="spacing" textLength="152" x="905.5" y="1333.2607">Update(state=file_transfer)</text><polygon fill="#181818" points="1826.5,1364.4688,1836.5,1368.4688,1826.5,1372.4688,1830.5,1368.4688" style="stroke:#181818;stroke-width:1.0;"/><line style="stroke:#181818;stroke-width:1.0;" x1="1343" x2="1832.5" y1="1368.4688" y2="1368.4688"/><text fill="#000000" font-family="sans-serif" font-size="13" lengthAdjust="spacing" textLength="118" x="1350" y="1363.6123">Copy(source, target)</text><polygon fill="#181818" points="1057,1394.8203,1047,1398.8203,1057,1402.8203,1053,1398.8203" style="stroke:#181818;stroke-width:1.0;"/><line style="stroke:#181818;stroke-width:1.0;" x1="1051" x2="1332" y1="1398.8203" y2="1398.8203"/><text fill="#000000" font-family="sans-serif" font-size="13" lengthAdjust="spacing" textLength="45" x="1063" y="1393.9639">Log(file)</text><polygon fill="#181818" points="899.5,1425.1719,889.5,1429.1719,899.5,1433.1719,895.5,1429.1719" style="stroke:#181818;stroke-width:1.0;"/><line style="stroke:#181818;stroke-width:1.0;" x1="893.5" x2="1332" y1="1429.1719" y2="1429.1719"/><text fill="#000000" font-family="sans-serif" font-size="13" lengthAdjust="spacing" textLength="99" x="905.5" y="1424.3154">Update(progress)</text><polygon fill="#181818" points="2621.5,1455.5234,2631.5,1459.5234,2621.5,1463.5234,2625.5,1459.5234" style="stroke:#181818;stroke-width:1.0;"/><line style="stroke:#181818;stroke-width:1.0;" x1="1343" x2="2627.5" y1="1459.5234" y2="1459.5234"/><text fill="#000000" font-family="sans-serif" font-size="13" lengthAdjust="spacing" textLength="113" x="1350" y="1454.667">UpdateProgress(%)</text><polygon fill="#181818" points="899.5,1492.875,889.5,1496.875,899.5,1500.875,895.5,1496.875" style="stroke:#181818;stroke-width:1.0;"/><line style="stroke:#181818;stroke-width:1.0;" x1="893.5" x2="1332" y1="1496.875" y2="1496.875"/><text fill="#000000" font-family="sans-serif" font-size="13" lengthAdjust="spacing" textLength="180" x="905.5" y="1492.0186">Update(state=completed/failed)</text><polygon fill="#181818" points="1057,1523.2266,1047,1527.2266,1057,1531.2266,1053,1527.2266" style="stroke:#181818;stroke-width:1.0;"/><line style="stroke:#181818;stroke-width:1.0;" x1="1051" x2="1337" y1="1527.2266" y2="1527.2266"/><text fill="#000000" font-family="sans-serif" font-size="13" lengthAdjust="spacing" textLength="50" x="1063" y="1522.3701">Log(end)</text><!--SRC=[dLHjRzCm4FwUNs5DGagbql4PmIJeDjIfmBIky0K9UScrDQHsi9rjuTTpvykRcsu2FYLtzzpxu_FA5o0kfAjNyXx4I_5HAYqS_Af0Po3IzK8OA-RBnKH8dOiVvax08sILLqOdYSmyMjSER59AwrMcIgczkBPcQ-K-qhKftfLbeJ99_a8wWM846vZdHc_Kjh8TbXKH_5nwUItzxWQSAUx14gpLkRWcrAp0tYli2a5Zm9Mvku7IE8KjrGGXAKAilFHmgGeOn0cw27LovOnUckrNgppOD_XteRsjpqu8tkd7WLUrpdRMQFMRso0vGhsNsS-g7EHcnH7CkR90cwclBQ2r6Oko91w1Sqj5S0cPc_y8Ig2vAHK7uxy8G2nOQ6nj8xcyzIAo4x4-WgvmYzwQek10f3bSmr9ME8el2Xx2o88KOUPclqSsnf6GeyT0jDPAQyRmtvYhuDnNbM_11seqcYHfU2nUdX4lNvDxAktMJH8KISkCV8rhbNaw-QONsdc9xwQrTrH4NsPejveq2xwdXTbsuHgeXeUqqn4BMSKE6A2p1TuyPUoenW3C4xasEsPZIDpP6gQmgGip5J6AAN1GBHDgv1aARG9CkzpJDjEq2TPNXzpd8DH-ut_Oza8hhsI1xoMWPho42Lwb0lU8QvejGM_zJfo9Lo95UeYzoJ6A46q7oqM_qwdWLDn1N3Bva3-j8p0ek26pNAhoO6qerksBQuaCuwhnc0RdmfXIWCnsGkKe3fqQHjpQ-fEn- -1syQYSLthRCydPxDHZ3-0d1-xjEhXQIaW8q7a2XGEXwBdY3LTu-TSydduwwyLenAFfq9u6CnfuhdRcWTvs6C8wZ8v4Dh3ISOsiTe4JueHVkxWBUKuGHkP0vs0O-3V8ySXxmtzChtS-DZkQN186XkstzvS_WnL_0F_PpYsWm6uzufyhwbq7xnb_KpmqDh9th_P2kyh2RGZG1bNWqjbiDiJt5m3hfUlkRWq-mtg4uwRMPKxzE9BUZfAtDvCVxQfs7lPu7F7auOFh-Rt1D3ZaloowlZIM2kEAXcx7QgBOtxsLscteaWpXxQaAxJbJsGovs-_yoHbJoESIbqtNCQQV1SDQENt117g-ZSpiom8yvASRYUdpPoY0mIP93WTy_0C0]--></g></svg>