<?xml version="1.0" encoding="us-ascii" standalone="no"?><svg xmlns="http://www.w3.org/2000/svg" xmlns:xlink="http://www.w3.org/1999/xlink" contentStyleType="text/css" height="1560px" preserveAspectRatio="none" style="width:1185px;height:1560px;background:#FFFFFF;" version="1.1" viewBox="0 0 1185 1560" width="1185px" zoomAndPan="magnify"><defs/><g><text fill="#000000" font-family="sans-serif" font-size="14" font-weight="bold" lengthAdjust="spacing" textLength="240" x="473.5" y="29.5332">BackupService - Workflow detaille</text><rect fill="#FFFFFF" height="240.1641" style="stroke:#181818;stroke-width:1.0;" width="10" x="128.5" y="153.5703"/><rect fill="none" height="1201.5156" style="stroke:#000000;stroke-width:1.5;" width="1168" x="10" y="259.625"/><rect fill="none" height="407.4609" style="stroke:#000000;stroke-width:1.5;" width="1108.5" x="59.5" y="781.3281"/><rect fill="none" height="221" style="stroke:#000000;stroke-width:1.5;" width="545.5" x="69.5" y="930.4375"/><rect fill="none" height="221" style="stroke:#000000;stroke-width:1.5;" width="545.5" x="69.5" y="1202.7891"/><line style="stroke:#181818;stroke-width:0.5;stroke-dasharray:5.0,5.0;" x1="41" x2="41" y1="121.2188" y2="1478.1406"/><line style="stroke:#181818;stroke-width:0.5;stroke-dasharray:5.0,5.0;" x1="133.5" x2="133.5" y1="121.2188" y2="1478.1406"/><line style="stroke:#181818;stroke-width:0.5;stroke-dasharray:5.0,5.0;" x1="291" x2="291" y1="121.2188" y2="1478.1406"/><line style="stroke:#181818;stroke-width:0.5;stroke-dasharray:5.0,5.0;" x1="396" x2="396" y1="121.2188" y2="1478.1406"/><line style="stroke:#181818;stroke-width:0.5;stroke-dasharray:5.0,5.0;" x1="529" x2="529" y1="121.2188" y2="1478.1406"/><line style="stroke:#181818;stroke-width:0.5;stroke-dasharray:5.0,5.0;" x1="703" x2="703" y1="121.2188" y2="1478.1406"/><line style="stroke:#181818;stroke-width:0.5;stroke-dasharray:5.0,5.0;" x1="871" x2="871" y1="121.2188" y2="1478.1406"/><line style="stroke:#181818;stroke-width:0.5;stroke-dasharray:5.0,5.0;" x1="992" x2="992" y1="121.2188" y2="1478.1406"/><line style="stroke:#181818;stroke-width:0.5;stroke-dasharray:5.0,5.0;" x1="1100" x2="1100" y1="760.9766" y2="1478.1406"/><text fill="#000000" font-family="sans-serif" font-size="14" lengthAdjust="spacing" textLength="37" x="20" y="118.1426">Caller</text><ellipse cx="41.5" cy="52.1094" fill="#E2E2F0" rx="8" ry="8" style="stroke:#181818;stroke-width:0.5;"/><path d="M41.5,60.1094 L41.5,87.1094 M28.5,68.1094 L54.5,68.1094 M41.5,87.1094 L28.5,102.1094 M41.5,87.1094 L54.5,102.1094 " fill="none" style="stroke:#181818;stroke-width:0.5;"/><text fill="#000000" font-family="sans-serif" font-size="14" lengthAdjust="spacing" textLength="37" x="20" y="1491.6738">Caller</text><ellipse cx="41.5" cy="1503.25" fill="#E2E2F0" rx="8" ry="8" style="stroke:#181818;stroke-width:0.5;"/><path d="M41.5,1511.25 L41.5,1538.25 M28.5,1519.25 L54.5,1519.25 M41.5,1538.25 L28.5,1553.25 M41.5,1538.25 L54.5,1553.25 " fill="none" style="stroke:#181818;stroke-width:0.5;"/><rect fill="#E2E2F0" height="31.6094" rx="2.5" ry="2.5" style="stroke:#181818;stroke-width:0.5;" width="108" x="79.5" y="88.6094"/><text fill="#000000" font-family="sans-serif" font-size="14" lengthAdjust="spacing" textLength="94" x="86.5" y="110.1426">BackupService</text><rect fill="#E2E2F0" height="31.6094" rx="2.5" ry="2.5" style="stroke:#181818;stroke-width:0.5;" width="108" x="79.5" y="1477.1406"/><text fill="#000000" font-family="sans-serif" font-size="14" lengthAdjust="spacing" textLength="94" x="86.5" y="1498.6738">BackupService</text><rect fill="#E2E2F0" height="31.6094" rx="2.5" ry="2.5" style="stroke:#181818;stroke-width:0.5;" width="97" x="243" y="88.6094"/><text fill="#000000" font-family="sans-serif" font-size="14" lengthAdjust="spacing" textLength="83" x="250" y="110.1426">IStateService</text><rect fill="#E2E2F0" height="31.6094" rx="2.5" ry="2.5" style="stroke:#181818;stroke-width:0.5;" width="97" x="243" y="1477.1406"/><text fill="#000000" font-family="sans-serif" font-size="14" lengthAdjust="spacing" textLength="83" x="250" y="1498.6738">IStateService</text><rect fill="#E2E2F0" height="31.6094" rx="2.5" ry="2.5" style="stroke:#181818;stroke-width:0.5;" width="93" x="350" y="88.6094"/><text fill="#000000" font-family="sans-serif" font-size="14" lengthAdjust="spacing" textLength="79" x="357" y="110.1426">IPathService</text><rect fill="#E2E2F0" height="31.6094" rx="2.5" ry="2.5" style="stroke:#181818;stroke-width:0.5;" width="93" x="350" y="1477.1406"/><text fill="#000000" font-family="sans-serif" font-size="14" lengthAdjust="spacing" textLength="79" x="357" y="1498.6738">IPathService</text><rect fill="#E2E2F0" height="31.6094" rx="2.5" ry="2.5" style="stroke:#181818;stroke-width:0.5;" width="152" x="453" y="88.6094"/><text fill="#000000" font-family="sans-serif" font-size="14" lengthAdjust="spacing" textLength="138" x="460" y="110.1426">ILogWriter&lt;LogEntry&gt;</text><rect fill="#E2E2F0" height="31.6094" rx="2.5" ry="2.5" style="stroke:#181818;stroke-width:0.5;" width="152" x="453" y="1477.1406"/><text fill="#000000" font-family="sans-serif" font-size="14" lengthAdjust="spacing" textLength="138" x="460" y="1498.6738">ILogWriter&lt;LogEntry&gt;</text><rect fill="#E2E2F0" height="31.6094" rx="2.5" ry="2.5" style="stroke:#181818;stroke-width:0.5;" width="177" x="615" y="88.6094"/><text fill="#000000" font-family="sans-serif" font-size="14" lengthAdjust="spacing" textLength="163" x="622" y="110.1426">IBackupDirectoryPreparer</text><rect fill="#E2E2F0" height="31.6094" rx="2.5" ry="2.5" style="stroke:#181818;stroke-width:0.5;" width="177" x="615" y="1477.1406"/><text fill="#000000" font-family="sans-serif" font-size="14" lengthAdjust="spacing" textLength="163" x="622" y="1498.6738">IBackupDirectoryPreparer</text><rect fill="#E2E2F0" height="31.6094" rx="2.5" ry="2.5" style="stroke:#181818;stroke-width:0.5;" width="139" x="802" y="88.6094"/><text fill="#000000" font-family="sans-serif" font-size="14" lengthAdjust="spacing" textLength="125" x="809" y="110.1426">IBackupFileSelector</text><rect fill="#E2E2F0" height="31.6094" rx="2.5" ry="2.5" style="stroke:#181818;stroke-width:0.5;" width="139" x="802" y="1477.1406"/><text fill="#000000" font-family="sans-serif" font-size="14" lengthAdjust="spacing" textLength="125" x="809" y="1498.6738">IBackupFileSelector</text><rect fill="#E2E2F0" height="31.6094" rx="2.5" ry="2.5" style="stroke:#181818;stroke-width:0.5;" width="82" x="951" y="88.6094"/><text fill="#000000" font-family="sans-serif" font-size="14" lengthAdjust="spacing" textLength="68" x="958" y="110.1426">IFileCopier</text><rect fill="#E2E2F0" height="31.6094" rx="2.5" ry="2.5" style="stroke:#181818;stroke-width:0.5;" width="82" x="951" y="1477.1406"/><text fill="#000000" font-family="sans-serif" font-size="14" lengthAdjust="spacing" textLength="68" x="958" y="1498.6738">IFileCopier</text><rect fill="#E2E2F0" height="31.6094" rx="2.5" ry="2.5" style="stroke:#181818;stroke-width:0.5;" width="115" x="1043" y="1477.1406"/><text fill="#000000" font-family="sans-serif" font-size="14" lengthAdjust="spacing" textLength="101" x="1050" y="1498.6738">ProgressWidget</text><rect fill="#FFFFFF" height="240.1641" style="stroke:#181818;stroke-width:1.0;" width="10" x="128.5" y="153.5703"/><polygon fill="#181818" points="116.5,149.5703,126.5,153.5703,116.5,157.5703,120.5,153.5703" style="stroke:#181818;stroke-width:1.0;"/><line style="stroke:#181818;stroke-width:1.0;" x1="41.5" x2="122.5" y1="153.5703" y2="153.5703"/><text fill="#000000" font-family="sans-serif" font-size="13" lengthAdjust="spacing" textLength="68" x="48.5" y="148.7139">RunJob(job)</text><polygon fill="#181818" points="279.5,179.9219,289.5,183.9219,279.5,187.9219,283.5,183.9219" style="stroke:#181818;stroke-width:1.0;"/><line style="stroke:#181818;stroke-width:1.0;" x1="138.5" x2="285.5" y1="183.9219" y2="183.9219"/><text fill="#000000" font-family="sans-serif" font-size="13" lengthAdjust="spacing" textLength="98" x="145.5" y="179.0654">GetOrCreate(job)</text><polygon fill="#181818" points="384.5,210.2734,394.5,214.2734,384.5,218.2734,388.5,214.2734" style="stroke:#181818;stroke-width:1.0;"/><line style="stroke:#181818;stroke-width:1.0;" x1="138.5" x2="390.5" y1="214.2734" y2="214.2734"/><text fill="#000000" font-family="sans-serif" font-size="13" lengthAdjust="spacing" textLength="222" x="145.5" y="209.417">TryNormalizeExistingDirectory(source)</text><polygon fill="#181818" points="384.5,240.625,394.5,244.625,384.5,248.625,388.5,244.625" style="stroke:#181818;stroke-width:1.0;"/><line style="stroke:#181818;stroke-width:1.0;" x1="138.5" x2="390.5" y1="244.625" y2="244.625"/><text fill="#000000" font-family="sans-serif" font-size="13" lengthAdjust="spacing" textLength="216" x="145.5" y="239.7686">TryNormalizeExistingDirectory(target)</text><path d="M10,259.625 L71,259.625 L71,267.9766 L61,277.9766 L10,277.9766 L10,259.625 " fill="#EEEEEE" style="stroke:#000000;stroke-width:1.5;"/><rect fill="none" height="1201.5156" style="stroke:#000000;stroke-width:1.5;" width="1168" x="10" y="259.625"/><text fill="#000000" font-family="sans-serif" font-size="13" font-weight="bold" lengthAdjust="spacing" textLength="16" x="25" y="274.1201">alt</text><text fill="#000000" font-family="sans-serif" font-size="11" font-weight="bold" lengthAdjust="spacing" textLength="92" x="86" y="273.0439">[source invalide]</text><polygon fill="#181818" points="279.5,312.6797,289.5,316.6797,279.5,320.6797,283.5,316.6797" style="stroke:#181818;stroke-width:1.0;"/><line style="stroke:#181818;stroke-width:1.0;" x1="138.5" x2="285.5" y1="316.6797" y2="316.6797"/><text fill="#000000" font-family="sans-serif" font-size="13" lengthAdjust="spacing" textLength="84" x="145.5" y="295.4717">Update(Failed,</text><text fill="#000000" font-family="sans-serif" font-size="13" lengthAdjust="spacing" textLength="95" x="145.5" y="311.8232">source_missing)</text><polygon fill="#181818" points="517,359.3828,527,363.3828,517,367.3828,521,363.3828" style="stroke:#181818;stroke-width:1.0;"/><line style="stroke:#181818;stroke-width:1.0;" x1="138.5" x2="523" y1="363.3828" y2="363.3828"/><text fill="#000000" font-family="sans-serif" font-size="13" lengthAdjust="spacing" textLength="55" x="145.5" y="342.1748">Log(error,</text><text fill="#000000" font-family="sans-serif" font-size="13" lengthAdjust="spacing" textLength="115" x="145.5" y="358.5264">TransferTimeMs=-1)</text><polygon fill="#181818" points="52.5,389.7344,42.5,393.7344,52.5,397.7344,48.5,393.7344" style="stroke:#181818;stroke-width:1.0;"/><line style="stroke:#181818;stroke-width:1.0;stroke-dasharray:2.0,2.0;" x1="46.5" x2="132.5" y1="393.7344" y2="393.7344"/><text fill="#000000" font-family="sans-serif" font-size="13" lengthAdjust="spacing" textLength="33" x="58.5" y="388.8779">return</text><line style="stroke:#000000;stroke-width:1.0;stroke-dasharray:2.0,2.0;" x1="10" x2="1178" y1="402.7344" y2="402.7344"/><text fill="#000000" font-family="sans-serif" font-size="11" font-weight="bold" lengthAdjust="spacing" textLength="86" x="15" y="414.1533">[target invalide]</text><polygon fill="#181818" points="279.5,452.2734,289.5,456.2734,279.5,460.2734,283.5,456.2734" style="stroke:#181818;stroke-width:1.0;"/><line style="stroke:#181818;stroke-width:1.0;" x1="133.5" x2="285.5" y1="456.2734" y2="456.2734"/><text fill="#000000" font-family="sans-serif" font-size="13" lengthAdjust="spacing" textLength="84" x="140.5" y="435.0654">Update(Failed,</text><text fill="#000000" font-family="sans-serif" font-size="13" lengthAdjust="spacing" textLength="89" x="140.5" y="451.417">target_missing)</text><polygon fill="#181818" points="517,498.9766,527,502.9766,517,506.9766,521,502.9766" style="stroke:#181818;stroke-width:1.0;"/><line style="stroke:#181818;stroke-width:1.0;" x1="133.5" x2="523" y1="502.9766" y2="502.9766"/><text fill="#000000" font-family="sans-serif" font-size="13" lengthAdjust="spacing" textLength="55" x="140.5" y="481.7686">Log(error,</text><text fill="#000000" font-family="sans-serif" font-size="13" lengthAdjust="spacing" textLength="115" x="140.5" y="498.1201">TransferTimeMs=-1)</text><polygon fill="#181818" points="52.5,529.3281,42.5,533.3281,52.5,537.3281,48.5,533.3281" style="stroke:#181818;stroke-width:1.0;"/><line style="stroke:#181818;stroke-width:1.0;stroke-dasharray:2.0,2.0;" x1="46.5" x2="132.5" y1="533.3281" y2="533.3281"/><text fill="#000000" font-family="sans-serif" font-size="13" lengthAdjust="spacing" textLength="33" x="58.5" y="528.4717">return</text><line style="stroke:#000000;stroke-width:1.0;stroke-dasharray:2.0,2.0;" x1="10" x2="1178" y1="542.3281" y2="542.3281"/><text fill="#000000" font-family="sans-serif" font-size="11" font-weight="bold" lengthAdjust="spacing" textLength="139" x="15" y="553.7471">[source et target valides]</text><polygon fill="#181818" points="517,575.5156,527,579.5156,517,583.5156,521,579.5156" style="stroke:#181818;stroke-width:1.0;"/><line style="stroke:#181818;stroke-width:1.0;" x1="133.5" x2="523" y1="579.5156" y2="579.5156"/><text fill="#000000" font-family="sans-serif" font-size="13" lengthAdjust="spacing" textLength="55" x="140.5" y="574.6592">Log(start)</text><polygon fill="#181818" points="691.5,605.8672,701.5,609.8672,691.5,613.8672,695.5,609.8672" style="stroke:#181818;stroke-width:1.0;"/><line style="stroke:#181818;stroke-width:1.0;" x1="133.5" x2="697.5" y1="609.8672" y2="609.8672"/><text fill="#000000" font-family="sans-serif" font-size="13" lengthAdjust="spacing" textLength="159" x="140.5" y="605.0107">EnsureTargetDirectories(...)</text><polygon fill="#181818" points="859.5,668.9219,869.5,672.9219,859.5,676.9219,863.5,672.9219" style="stroke:#181818;stroke-width:1.0;"/><line style="stroke:#181818;stroke-width:1.0;" x1="133.5" x2="865.5" y1="672.9219" y2="672.9219"/><text fill="#000000" font-family="sans-serif" font-size="13" lengthAdjust="spacing" textLength="118" x="140.5" y="635.3623">GetFilesToCopy(job,</text><text fill="#000000" font-family="sans-serif" font-size="13" lengthAdjust="spacing" textLength="59" x="140.5" y="651.7139">sourceDir,</text><text fill="#000000" font-family="sans-serif" font-size="13" lengthAdjust="spacing" textLength="53" x="140.5" y="668.0654">targetDir)</text><polygon fill="#181818" points="279.5,715.625,289.5,719.625,279.5,723.625,283.5,719.625" style="stroke:#181818;stroke-width:1.0;"/><line style="stroke:#181818;stroke-width:1.0;" x1="133.5" x2="285.5" y1="719.625" y2="719.625"/><text fill="#000000" font-family="sans-serif" font-size="13" lengthAdjust="spacing" textLength="84" x="140.5" y="698.417">Update(Active,</text><text fill="#000000" font-family="sans-serif" font-size="13" lengthAdjust="spacing" textLength="30" x="140.5" y="714.7686">start,</text><text fill="#000000" font-family="sans-serif" font-size="13" lengthAdjust="spacing" textLength="4" x="170.5" y="714.7686">&#160;</text><text fill="#000000" font-family="sans-serif" font-size="13" lengthAdjust="spacing" textLength="36" x="174.5" y="714.7686">totals)</text><polygon fill="#181818" points="1031,762.3281,1041,766.3281,1031,770.3281,1035,766.3281" style="stroke:#181818;stroke-width:1.0;"/><line style="stroke:#181818;stroke-width:1.0;" x1="133.5" x2="1037" y1="766.3281" y2="766.3281"/><text fill="#000000" font-family="sans-serif" font-size="13" lengthAdjust="spacing" textLength="23" x="140.5" y="745.1201">new</text><text fill="#000000" font-family="sans-serif" font-size="13" lengthAdjust="spacing" textLength="100" x="140.5" y="761.4717">SystemConsole()</text><rect fill="#E2E2F0" height="31.6094" rx="2.5" ry="2.5" style="stroke:#181818;stroke-width:0.5;" width="115" x="1043" y="731.7188"/><text fill="#000000" font-family="sans-serif" font-size="14" lengthAdjust="spacing" textLength="101" x="1050" y="753.252">ProgressWidget</text><path d="M59.5,781.3281 L132.5,781.3281 L132.5,789.6797 L122.5,799.6797 L59.5,799.6797 L59.5,781.3281 " fill="#EEEEEE" style="stroke:#000000;stroke-width:1.5;"/><rect fill="none" height="407.4609" style="stroke:#000000;stroke-width:1.5;" width="1108.5" x="59.5" y="781.3281"/><text fill="#000000" font-family="sans-serif" font-size="13" font-weight="bold" lengthAdjust="spacing" textLength="28" x="74.5" y="795.8232">loop</text><text fill="#000000" font-family="sans-serif" font-size="11" font-weight="bold" lengthAdjust="spacing" textLength="183" x="147.5" y="794.7471">[pour chaque fichier selectionne]</text><polygon fill="#181818" points="691.5,818.0313,701.5,822.0313,691.5,826.0313,695.5,822.0313" style="stroke:#181818;stroke-width:1.0;"/><line style="stroke:#181818;stroke-width:1.0;" x1="133.5" x2="697.5" y1="822.0313" y2="822.0313"/><text fill="#000000" font-family="sans-serif" font-size="13" lengthAdjust="spacing" textLength="189" x="140.5" y="817.1748">EnsureTargetDirectoryForFile(...)</text><polygon fill="#181818" points="279.5,864.7344,289.5,868.7344,279.5,872.7344,283.5,868.7344" style="stroke:#181818;stroke-width:1.0;"/><line style="stroke:#181818;stroke-width:1.0;" x1="133.5" x2="285.5" y1="868.7344" y2="868.7344"/><text fill="#000000" font-family="sans-serif" font-size="13" lengthAdjust="spacing" textLength="115" x="140.5" y="847.5264">Update(file_transfer,</text><text fill="#000000" font-family="sans-serif" font-size="13" lengthAdjust="spacing" textLength="40" x="140.5" y="863.8779">current</text><text fill="#000000" font-family="sans-serif" font-size="13" lengthAdjust="spacing" textLength="4" x="180.5" y="863.8779">&#160;</text><text fill="#000000" font-family="sans-serif" font-size="13" lengthAdjust="spacing" textLength="36" x="184.5" y="863.8779">paths)</text><polygon fill="#181818" points="980,911.4375,990,915.4375,980,919.4375,984,915.4375" style="stroke:#181818;stroke-width:1.0;"/><line style="stroke:#181818;stroke-width:1.0;" x1="133.5" x2="986" y1="915.4375" y2="915.4375"/><text fill="#000000" font-family="sans-serif" font-size="13" lengthAdjust="spacing" textLength="98" x="140.5" y="894.2295">Copy(sourceFile,</text><text fill="#000000" font-family="sans-serif" font-size="13" lengthAdjust="spacing" textLength="58" x="140.5" y="910.5811">targetFile)</text><path d="M69.5,930.4375 L130.5,930.4375 L130.5,938.7891 L120.5,948.7891 L69.5,948.7891 L69.5,930.4375 " fill="#EEEEEE" style="stroke:#000000;stroke-width:1.5;"/><rect fill="none" height="221" style="stroke:#000000;stroke-width:1.5;" width="545.5" x="69.5" y="930.4375"/><text fill="#000000" font-family="sans-serif" font-size="13" font-weight="bold" lengthAdjust="spacing" textLength="16" x="84.5" y="944.9326">alt</text><text fill="#000000" font-family="sans-serif" font-size="11" font-weight="bold" lengthAdjust="spacing" textLength="56" x="145.5" y="943.8564">[copie OK]</text><polygon fill="#181818" points="517,983.4922,527,987.4922,517,991.4922,521,987.4922" style="stroke:#181818;stroke-width:1.0;"/><line style="stroke:#181818;stroke-width:1.0;" x1="133.5" x2="523" y1="987.4922" y2="987.4922"/><text fill="#000000" font-family="sans-serif" font-size="13" lengthAdjust="spacing" textLength="45" x="140.5" y="966.2842">Log(file,</text><text fill="#000000" font-family="sans-serif" font-size="13" lengthAdjust="spacing" textLength="90" x="140.5" y="982.6357">elapsedMs&gt;=0)</text><polygon fill="#181818" points="279.5,1030.1953,289.5,1034.1953,279.5,1038.1953,283.5,1034.1953" style="stroke:#181818;stroke-width:1.0;"/><line style="stroke:#181818;stroke-width:1.0;" x1="133.5" x2="285.5" y1="1034.1953" y2="1034.1953"/><text fill="#000000" font-family="sans-serif" font-size="13" lengthAdjust="spacing" textLength="99" x="140.5" y="1012.9873">Update(progress,</text><text fill="#000000" font-family="sans-serif" font-size="13" lengthAdjust="spacing" textLength="60" x="140.5" y="1029.3389">remaining)</text><line style="stroke:#000000;stroke-width:1.0;stroke-dasharray:2.0,2.0;" x1="69.5" x2="615" y1="1043.1953" y2="1043.1953"/><text fill="#000000" font-family="sans-serif" font-size="11" font-weight="bold" lengthAdjust="spacing" textLength="139" x="74.5" y="1054.6143">[exception pendant copy]</text><polygon fill="#181818" points="517,1092.7344,527,1096.7344,517,1100.7344,521,1096.7344" style="stroke:#181818;stroke-width:1.0;"/><line style="stroke:#181818;stroke-width:1.0;" x1="133.5" x2="523" y1="1096.7344" y2="1096.7344"/><text fill="#000000" font-family="sans-serif" font-size="13" lengthAdjust="spacing" textLength="45" x="140.5" y="1075.5264">Log(file,</text><text fill="#000000" font-family="sans-serif" font-size="13" lengthAdjust="spacing" textLength="86" x="140.5" y="1091.8779">elapsedMs=-1)</text><polygon fill="#181818" points="279.5,1139.4375,289.5,1143.4375,279.5,1147.4375,283.5,1143.4375" style="stroke:#181818;stroke-width:1.0;"/><line style="stroke:#181818;stroke-width:1.0;" x1="133.5" x2="285.5" y1="1143.4375" y2="1143.4375"/><text fill="#000000" font-family="sans-serif" font-size="13" lengthAdjust="spacing" textLength="99" x="140.5" y="1122.2295">Update(progress,</text><text fill="#000000" font-family="sans-serif" font-size="13" lengthAdjust="spacing" textLength="60" x="140.5" y="1138.5811">remaining)</text><polygon fill="#181818" points="1088.5,1176.7891,1098.5,1180.7891,1088.5,1184.7891,1092.5,1180.7891" style="stroke:#181818;stroke-width:1.0;"/><line style="stroke:#181818;stroke-width:1.0;" x1="133.5" x2="1094.5" y1="1180.7891" y2="1180.7891"/><text fill="#000000" font-family="sans-serif" font-size="13" lengthAdjust="spacing" textLength="113" x="140.5" y="1175.9326">UpdateProgress(%)</text><path d="M69.5,1202.7891 L130.5,1202.7891 L130.5,1211.1406 L120.5,1221.1406 L69.5,1221.1406 L69.5,1202.7891 " fill="#EEEEEE" style="stroke:#000000;stroke-width:1.5;"/><rect fill="none" height="221" style="stroke:#000000;stroke-width:1.5;" width="545.5" x="69.5" y="1202.7891"/><text fill="#000000" font-family="sans-serif" font-size="13" font-weight="bold" lengthAdjust="spacing" textLength="16" x="84.5" y="1217.2842">alt</text><text fill="#000000" font-family="sans-serif" font-size="11" font-weight="bold" lengthAdjust="spacing" textLength="172" x="145.5" y="1216.208">[au moins une erreur de copie]</text><polygon fill="#181818" points="279.5,1255.8438,289.5,1259.8438,279.5,1263.8438,283.5,1259.8438" style="stroke:#181818;stroke-width:1.0;"/><line style="stroke:#181818;stroke-width:1.0;" x1="133.5" x2="285.5" y1="1259.8438" y2="1259.8438"/><text fill="#000000" font-family="sans-serif" font-size="13" lengthAdjust="spacing" textLength="84" x="140.5" y="1238.6357">Update(Failed,</text><text fill="#000000" font-family="sans-serif" font-size="13" lengthAdjust="spacing" textLength="134" x="140.5" y="1254.9873">completed_with_errors)</text><polygon fill="#181818" points="517,1302.5469,527,1306.5469,517,1310.5469,521,1306.5469" style="stroke:#181818;stroke-width:1.0;"/><line style="stroke:#181818;stroke-width:1.0;" x1="133.5" x2="523" y1="1306.5469" y2="1306.5469"/><text fill="#000000" font-family="sans-serif" font-size="13" lengthAdjust="spacing" textLength="50" x="140.5" y="1285.3389">Log(end,</text><text fill="#000000" font-family="sans-serif" font-size="13" lengthAdjust="spacing" textLength="115" x="140.5" y="1301.6904">TransferTimeMs=-1)</text><line style="stroke:#000000;stroke-width:1.0;stroke-dasharray:2.0,2.0;" x1="69.5" x2="615" y1="1315.5469" y2="1315.5469"/><text fill="#000000" font-family="sans-serif" font-size="11" font-weight="bold" lengthAdjust="spacing" textLength="87" x="74.5" y="1326.9658">[aucune erreur]</text><polygon fill="#181818" points="279.5,1365.0859,289.5,1369.0859,279.5,1373.0859,283.5,1369.0859" style="stroke:#181818;stroke-width:1.0;"/><line style="stroke:#181818;stroke-width:1.0;" x1="133.5" x2="285.5" y1="1369.0859" y2="1369.0859"/><text fill="#000000" font-family="sans-serif" font-size="13" lengthAdjust="spacing" textLength="111" x="140.5" y="1347.8779">Update(Completed,</text><text fill="#000000" font-family="sans-serif" font-size="13" lengthAdjust="spacing" textLength="64" x="140.5" y="1364.2295">completed)</text><polygon fill="#181818" points="517,1411.7891,527,1415.7891,517,1419.7891,521,1415.7891" style="stroke:#181818;stroke-width:1.0;"/><line style="stroke:#181818;stroke-width:1.0;" x1="133.5" x2="523" y1="1415.7891" y2="1415.7891"/><text fill="#000000" font-family="sans-serif" font-size="13" lengthAdjust="spacing" textLength="50" x="140.5" y="1394.5811">Log(end,</text><text fill="#000000" font-family="sans-serif" font-size="13" lengthAdjust="spacing" textLength="111" x="140.5" y="1410.9326">TransferTimeMs=0)</text><polygon fill="#181818" points="52.5,1449.1406,42.5,1453.1406,52.5,1457.1406,48.5,1453.1406" style="stroke:#181818;stroke-width:1.0;"/><line style="stroke:#181818;stroke-width:1.0;stroke-dasharray:2.0,2.0;" x1="46.5" x2="132.5" y1="1453.1406" y2="1453.1406"/><text fill="#000000" font-family="sans-serif" font-size="13" lengthAdjust="spacing" textLength="33" x="58.5" y="1448.2842">return</text><!--SRC=[pLHDRnen4BtlhnYbgWGIYP9RjMgG4Xggj4qJ5QeSaRCxW8lNtewz8TjVtx6zsm05aP9BkU2FzsRVFC-CaquXN8fiKPKZf4UP8Hp3lQ75L9abvEY4L0gJn2waBWM90XuOF2DJwNnWb25uCmo_5OJ5dnNg32-8p78ybzb2exLmjW8XjANH5c_uGipm4lbh0GwEAbm15kAfmOpaBuHtfqaYCiUV7GZMHGcZdCnaARHRJsFjvkXwv8J3vke8X8Lmi06w4sw-Yl5xku7vOcRt91tIUrvTQKTrFs1vDzlGStGT5NsGX5vpVKV8zqY1mAT-lvKnb8h5gi2AQflD1jhZ1gQKJSYuNCVSaPcns_PUvZDqCQtcA4cYYN3SN_SkXM-L_cGUEZ_CGzVxBH_Ph0r_ausgwKTBK_Y8xfO6XBo90Vu21bzJ65FzrL0X5B_irPEqJkhP7wywrbIKuQ5i9uZJxNArA0Sn54ZzoEWS4u1Tsh-NkPSzvAh7lDSG9uMqbgDtjn7ZkwV-luDSmTHZPKBRAT9O5dXZpu_FjX2P6SrFkHTSHPeXEUwm6fL5Y1aTa4Ga_Xz9D2_1UJJfn6JiFb6MuMwhzAQDKhZIjY8SXx1j7KYqdPEJawt4jgL2mVf6icF33LJxccrVdkEq_l6okz_p2vyxCjthPQfnGbdFoq8_FBVUbaZjNGeQbp2ghSDYm4FIAEnm8GCeOqeeMHXaSy4Z5gOoctF3yy3rgKYZjI-BVpMf7Xho-RTExKrook29Q-gZ1rb5X3ngIj-NEmB4oPH2C3Xwwp_PcklNaUdRDVDWkFqS3lOKnZH4GILAY_cDxP-VTdVHrfCe6xTxNBg5aBff3O1Gf_YKOUaTXH9rxWSfYweF4DGqpgi4wNoxgSy54qEq-yvRJ_Iq91egAYYCr1OgpQdnQt49vHXzVic3jvCaCqMfq64-MKetduH9iUl5rqQApdSCb62sgB9dOI_HCsXrh4WwKCRfYbMlccuw_mq0]--></g></svg>